<svg width="53" height="52" viewBox="0 0 53 52" fill="none" xmlns="http://www.w3.org/2000/svg">
<g filter="url(#filter0_d_101_270)">
<rect x="4" width="45" height="44" rx="10" fill="#1BFF07"/>
<rect x="4.5" y="0.5" width="44" height="43" rx="9.5" stroke="black"/>
<path d="M31.8544 8.9H31.8539L20.3886 8.9L20.3881 8.9C19.7292 8.90327 19.0983 9.16646 18.6324 9.63236C18.1665 10.0983 17.9033 10.7292 17.9 11.3881V11.3886L17.9 32.4083L17.9 32.4088C17.9033 33.0676 18.1665 33.6986 18.6324 34.1645C19.0983 34.6304 19.7292 34.8936 20.3881 34.8969H20.3886H31.8539L31.8544 34.8969C32.5133 34.8936 33.1442 34.6304 33.6101 34.1645C34.076 33.6986 34.3392 33.0676 34.3425 32.4088V32.4083V11.3886L34.3425 11.3881C34.3392 10.7292 34.076 10.0983 33.6101 9.63236C33.1442 9.16646 32.5133 8.90327 31.8544 8.9ZM19.0554 13.8772H33.187V29.9197H19.0554V13.8772ZM20.3886 10.0554H31.8539C32.2075 10.0554 32.5465 10.1959 32.7966 10.4459C33.0466 10.6959 33.187 11.035 33.187 11.3886V12.7218H19.0554V11.3886C19.0554 11.035 19.1959 10.6959 19.4459 10.4459C19.6959 10.1959 20.035 10.0554 20.3886 10.0554ZM31.8539 33.7414H20.3886C20.035 33.7414 19.6959 33.601 19.4459 33.351C19.1959 33.1009 19.0554 32.7619 19.0554 32.4083V31.0751H33.187V32.4083C33.187 32.7619 33.0466 33.1009 32.7966 33.351C32.5465 33.601 32.2075 33.7414 31.8539 33.7414Z" fill="white" stroke="white" stroke-width="0.2"/>
</g>
<defs>
<filter id="filter0_d_101_270" x="0" y="0" width="53" height="52" filterUnits="userSpaceOnUse" color-interpolation-filters="sRGB">
<feFlood flood-opacity="0" result="BackgroundImageFix"/>
<feColorMatrix in="SourceAlpha" type="matrix" values="0 0 0 0 0 0 0 0 0 0 0 0 0 0 0 0 0 0 127 0" result="hardAlpha"/>
<feOffset dy="4"/>
<feGaussianBlur stdDeviation="2"/>
<feComposite in2="hardAlpha" operator="out"/>
<feColorMatrix type="matrix" values="0 0 0 0 0 0 0 0 0 0 0 0 0 0 0 0 0 0 0.25 0"/>
<feBlend mode="normal" in2="BackgroundImageFix" result="effect1_dropShadow_101_270"/>
<feBlend mode="normal" in="SourceGraphic" in2="effect1_dropShadow_101_270" result="shape"/>
</filter>
</defs>
</svg>
